<?xml version="1.0" encoding="utf-8"?>
<!-- Generator: Adobe Illustrator 23.0.4, SVG Export Plug-In . SVG Version: 6.00 Build 0)  -->
<svg version="1.1" xmlns="http://www.w3.org/2000/svg" xmlns:xlink="http://www.w3.org/1999/xlink" x="0px" y="0px"
	 viewBox="0 0 52 52" style="enable-background:new 0 0 52 52;" xml:space="preserve">
<style type="text/css">
	.st0{fill:#002232;}
	.st1{fill:#F6FAFF;}
	.st2{fill:#F9FDFF;}
	.st3{fill:#FFFFFF;}
	.st4{fill:#001120;}
	.st5{fill:none;stroke:#FBAF24;stroke-width:2;stroke-linecap:round;stroke-miterlimit:10;}
	.st6{fill:none;stroke:#FBAF24;stroke-width:3;stroke-linecap:round;stroke-miterlimit:10;}
	.st7{fill:#FBAF24;}
	.st8{fill:none;stroke:#002232;stroke-width:1.4643;stroke-miterlimit:10;}
	.st9{fill:none;stroke:#002232;stroke-width:1.4676;stroke-miterlimit:10;}
	.st10{fill:none;stroke:#BDCCD4;stroke-miterlimit:10;}
	.st11{clip-path:url(#SVGID_2_);}
	.st12{fill:none;stroke:#002232;stroke-width:1.5;stroke-miterlimit:10;}
	.st13{fill:none;stroke:#FFFFFF;stroke-width:1.5479;stroke-miterlimit:10;}
	.st14{fill:none;stroke:#BDCCD4;stroke-linecap:round;stroke-miterlimit:10;}
	.st15{fill:#BDCCD4;}
	.st16{fill:#D1E0E8;}
</style>
<g id="Ebene_2">
</g>
<g id="Ebene_1">
	<g>
		<path class="st0" d="M12.5,14.5H8.5V8.6H3.9v5.9H0V0.1h3.9v5.3h4.6V0.1h3.9V14.5z"/>
		<path class="st0" d="M47.7,14.5L47,11.8h-4.7l-0.7,2.7h-4.3L42,0h5.2L52,14.5H47.7z M46.2,8.6l-0.6-2.4c-0.1-0.5-0.3-1.2-0.5-2
			c-0.2-0.8-0.3-1.4-0.4-1.8c-0.1,0.3-0.2,0.9-0.4,1.7s-0.6,2.3-1.2,4.5H46.2z"/>
		<path class="st0" d="M13.8,51.8H8.7L3.4,41.7H3.3c0.1,1.6,0.2,2.8,0.2,3.7v6.5H0V37.4h5.1l5.3,10h0.1c-0.1-1.5-0.1-2.6-0.1-3.5
			v-6.5h3.5V51.8z"/>
		<path class="st0" d="M49.7,47.4c0,0.9-0.2,1.7-0.7,2.4c-0.5,0.7-1.1,1.2-2,1.6S45.2,52,44,52c-1,0-1.8-0.1-2.4-0.2
			c-0.7-0.1-1.3-0.4-2-0.7v-3.5c0.7,0.4,1.5,0.7,2.3,0.9c0.8,0.2,1.6,0.3,2.2,0.3c0.6,0,1-0.1,1.3-0.3c0.3-0.2,0.4-0.5,0.4-0.8
			c0-0.2-0.1-0.4-0.2-0.5c-0.1-0.1-0.3-0.3-0.5-0.4c-0.2-0.2-0.9-0.5-1.9-0.9c-0.9-0.4-1.7-0.8-2.1-1.2c-0.5-0.4-0.8-0.9-1.1-1.4
			c-0.2-0.5-0.3-1.1-0.3-1.8c0-1.3,0.5-2.4,1.5-3.1c1-0.7,2.3-1.1,4-1.1c1.5,0,3,0.3,4.6,1l-1.2,3c-1.4-0.6-2.5-0.9-3.5-0.9
			c-0.5,0-0.9,0.1-1.1,0.3s-0.3,0.4-0.3,0.7c0,0.3,0.1,0.5,0.4,0.8c0.3,0.2,1.1,0.6,2.4,1.2c1.3,0.6,2.1,1.2,2.6,1.8
			C49.5,45.6,49.7,46.5,49.7,47.4z"/>
	</g>
</g>
</svg>
